<svg width="1258" height="222" viewBox="0 0 1258 222" fill="none" xmlns="http://www.w3.org/2000/svg">
<path d="M355.309 32.6471C333.544 10.8824 307.426 0 276.956 0C243.765 0 216.015 12.5147 193.706 37.5441C171.397 12.5147 144.191 0 110.456 0C79.9853 0 53.8676 10.8824 32.6471 32.6471C10.8824 54.4118 0 80.5294 0 111V221.456H55.5V111C55.5 95.7647 60.9412 82.7059 71.8235 71.8235C82.7059 60.9412 95.7647 55.5 111 55.5C126.235 55.5 139.294 60.9412 150.176 71.8235C161.059 82.7059 166.5 95.7647 166.5 111V221.456H222V111C222 95.7647 227.441 82.7059 238.324 71.8235C249.206 60.9412 262.265 55.5 277.5 55.5C292.735 55.5 305.794 60.9412 316.676 71.8235C327.559 82.7059 333 95.7647 333 111V221.456H388.5V111C387.412 80.5294 376.529 54.4118 355.309 32.6471Z" fill="#00AFC1"/>
<path d="M590.364 32.6471C568.599 10.8824 542.482 0 512.011 0C481.541 0 455.423 10.8824 433.658 32.6471C411.894 54.4118 401.011 80.5294 401.011 111C401.011 141.471 411.894 167.588 433.658 189.353C455.423 211.118 481.541 222 512.011 222C542.482 222 568.599 211.118 590.364 189.353C612.129 167.588 623.011 141.471 623.011 111C623.011 80.5294 612.129 54.4118 590.364 32.6471ZM551.188 150.176C540.305 161.059 527.247 166.5 512.011 166.5C496.776 166.5 483.717 161.059 472.835 150.176C461.952 139.294 456.511 126.235 456.511 111C456.511 95.7647 461.952 82.7059 472.835 71.8235C483.717 60.9412 496.776 55.5 512.011 55.5C527.247 55.5 540.305 60.9412 551.188 71.8235C562.07 82.7059 567.511 95.7647 567.511 111C567.511 126.235 562.07 139.294 551.188 150.176Z" fill="#00AFC1"/>
<path d="M747.082 0C716.611 0 690.494 10.8824 668.729 32.6471C646.964 54.4118 636.082 80.5294 636.082 111V221.456H691.582V111C691.582 95.7647 697.023 82.7059 707.906 71.8235C718.788 60.9412 731.847 55.5 747.082 55.5H781.906V0H747.082Z" fill="#00AFC1"/>
<path d="M1201.96 0C1201.96 45.7059 1185.63 84.8824 1152.99 117.529C1120.34 150.176 1081.16 165.956 1035.46 165.956C989.75 165.956 950.574 149.632 917.927 117.529C885.28 84.8824 868.956 45.7059 868.956 0H813.456C813.456 60.9412 835.221 113.176 878.75 156.706C922.28 200.235 974.515 221.456 1035.46 221.456C1096.4 221.456 1148.63 199.691 1192.16 156.706C1235.69 113.176 1257.46 61.4853 1257.46 0H1201.96V0Z" fill="#00AFC1"/>
</svg>
