<svg width="18" height="18" viewBox="0 0 18 18" fill="none" xmlns="http://www.w3.org/2000/svg">
<path d="M1.56919 15.741L1.42234 15.7104L1.56919 15.741C2.28426 12.3062 5.31375 9.79577 8.81255 9.70898C8.87477 9.71133 8.93723 9.7125 8.99998 9.7125C9.06338 9.7125 9.1265 9.71129 9.18931 9.70891C10.2607 9.73468 11.2906 9.97942 12.2543 10.4375L12.2543 10.4375C12.6798 10.6397 13.1887 10.4588 13.391 10.0332C13.5933 9.6077 13.4123 9.09876 12.9868 8.89648C12.719 8.76918 12.4469 8.65529 12.1711 8.55492C13.2464 7.64991 13.9312 6.29418 13.9312 4.78125C13.9312 2.06204 11.7192 -0.15 8.99998 -0.15C6.28074 -0.15 4.06874 2.06204 4.06874 4.78125C4.06874 6.2957 4.75501 7.65267 5.83212 8.55769C4.84458 8.91543 3.91761 9.43971 3.09794 10.1139C1.46393 11.458 0.327758 13.3326 -0.101232 15.3933C-0.242669 16.0725 -0.0731154 16.7709 0.363881 17.3082C0.798817 17.8431 1.44425 18.15 2.13372 18.15H10.793C11.2641 18.15 11.6461 17.7681 11.6461 17.2969C11.6461 16.8257 11.2641 16.4438 10.793 16.4438H2.13372C1.89588 16.4438 1.75333 16.3125 1.68763 16.2317C1.57609 16.0946 1.53273 15.9161 1.56919 15.741ZM12.3187 10.302C12.6694 10.4687 13.0888 10.3196 13.2555 9.96884C13.4223 9.61812 13.2731 9.19867 12.9224 9.03196C12.6314 8.89363 12.3354 8.77143 12.035 8.66548L12.3187 10.302ZM12.225 4.78125C12.225 6.50268 10.8689 7.91375 9.16897 8.00186C9.11276 8.00088 9.05644 8.00038 8.99998 8.00038C8.944 8.00038 8.88806 8.00092 8.83225 8.00193C7.13177 7.91444 5.77499 6.50311 5.77499 4.78125C5.77499 3.0031 7.22183 1.55625 8.99998 1.55625C10.7781 1.55625 12.225 3.0031 12.225 4.78125Z" fill="black" stroke="black" stroke-width="0.3"/>
<path d="M17.2969 13.807H15.5133V12.0234C15.5133 11.5523 15.1313 11.1703 14.6602 11.1703C14.189 11.1703 13.807 11.5523 13.807 12.0234V13.807H12.0234C11.5523 13.807 11.1703 14.189 11.1703 14.6602C11.1703 15.1313 11.5523 15.5133 12.0234 15.5133H13.807V17.2969C13.807 17.7681 14.189 18.15 14.6602 18.15C15.1313 18.15 15.5133 17.7681 15.5133 17.2969V15.5133H17.2969C17.7681 15.5133 18.15 15.1313 18.15 14.6602C18.15 14.189 17.7681 13.807 17.2969 13.807Z" fill="black" stroke="black" stroke-width="0.3"/>
</svg>
