<svg width="14" height="18" viewBox="0 0 14 18" fill="none" xmlns="http://www.w3.org/2000/svg">
<path d="M5.59375 18.15H8.40625C8.87743 18.15 9.25938 17.7681 9.25938 17.2969C9.25938 16.8257 8.87743 16.4437 8.40625 16.4437H5.59375C5.12257 16.4437 4.74062 16.8257 4.74062 17.2969C4.74062 17.7681 5.12257 18.15 5.59375 18.15Z" fill="black" stroke="black" stroke-width="0.3"/>
<path d="M7.15 -0.136857V-0.15H7C6.52882 -0.15 6.14687 0.231946 6.14687 0.703125V1.32841C3.75502 1.73527 1.92813 3.8219 1.92813 6.32812V10.6508C1.92813 10.8635 1.83141 11.0257 1.73039 11.0791C0.985353 11.4725 0.521875 12.2385 0.521875 13.0781C0.521875 14.3241 1.5353 15.3375 2.78125 15.3375H11.2188C12.4647 15.3375 13.4781 14.3241 13.4781 13.0781C13.4781 12.2385 13.0146 11.4725 12.2696 11.0791C12.1686 11.0258 12.0719 10.8636 12.0719 10.6508V6.32812C12.0719 3.8219 10.245 1.73527 7.85313 1.32841V0.703125C7.85313 0.283124 7.54964 -0.0659759 7.15 -0.136857ZM11.4729 12.5879L11.4729 12.5879C11.6583 12.6858 11.7719 12.8739 11.7719 13.0781C11.7719 13.383 11.5236 13.6313 11.2188 13.6313H2.78125C2.47639 13.6313 2.22812 13.383 2.22812 13.0781C2.22812 12.8739 2.34171 12.6858 2.52707 12.5879L2.52708 12.5879C3.21499 12.2247 3.63438 11.4789 3.63438 10.6508V6.32812C3.63438 4.47245 5.14433 2.9625 7 2.9625C8.85567 2.9625 10.3656 4.47245 10.3656 6.32812V10.6508C10.3656 11.4789 10.785 12.2247 11.4729 12.5879Z" fill="black" stroke="black" stroke-width="0.3"/>
</svg>
