<svg width="20" height="20" viewBox="0 0 20 20" fill="none" xmlns="http://www.w3.org/2000/svg">
<path d="M11.7688 10.0003L19.6335 2.13553C20.1222 1.64732 20.1222 0.855171 19.6335 0.36696C19.1449 -0.121669 18.3536 -0.121669 17.865 0.36696L10.0002 8.23171L2.13504 0.36696C1.64641 -0.121669 0.8551 -0.121669 0.366471 0.36696C-0.122157 0.855171 -0.122157 1.64732 0.366471 2.13553L8.23164 10.0003L0.366471 17.865C-0.122157 18.3532 -0.122157 19.1454 0.366471 19.6336C0.610786 19.8775 0.930979 19.9997 1.25076 19.9997C1.57053 19.9997 1.89073 19.8775 2.13504 19.6332L10.0002 11.7684L17.865 19.6332C18.1093 19.8775 18.4295 19.9997 18.7492 19.9997C19.069 19.9997 19.3892 19.8775 19.6335 19.6332C20.1222 19.145 20.1222 18.3528 19.6335 17.8646L11.7688 10.0003Z" fill="black"/>
</svg>
