<svg xmlns="http://www.w3.org/2000/svg" xmlns:xlink="http://www.w3.org/1999/xlink" width="40" zoomAndPan="magnify" viewBox="0 0 30 30.000001" height="40" preserveAspectRatio="xMidYMid meet" version="1.0"><defs><clipPath id="id1"><path d="M 0.484375 0 L 29.515625 0 L 29.515625 29.03125 L 0.484375 29.03125 Z M 0.484375 0 " clip-rule="nonzero"/></clipPath><clipPath id="id2"><path d="M 2.925781 2.359375 L 26.875 2.359375 L 26.875 29.03125 L 2.925781 29.03125 Z M 2.925781 2.359375 " clip-rule="nonzero"/></clipPath></defs><g clip-path="url(#id1)"><path fill="#ffffff" d="M 0.484375 0 L 29.515625 0 L 29.515625 36.289062 L 0.484375 36.289062 Z M 0.484375 0 " fill-opacity="1" fill-rule="nonzero"/><path fill="#ffffff" d="M 0.484375 0 L 29.515625 0 L 29.515625 29.03125 L 0.484375 29.03125 Z M 0.484375 0 " fill-opacity="1" fill-rule="nonzero"/><path fill="#ffffff" d="M 0.484375 0 L 29.515625 0 L 29.515625 29.03125 L 0.484375 29.03125 Z M 0.484375 0 " fill-opacity="1" fill-rule="nonzero"/><path fill="#ffffff" d="M 0.484375 0 L 29.515625 0 L 29.515625 29.03125 L 0.484375 29.03125 Z M 0.484375 0 " fill-opacity="1" fill-rule="nonzero"/></g><g clip-path="url(#id2)"><path fill="#000000" d="M 14.902344 29.207031 C 8.289062 29.207031 2.925781 23.757812 2.925781 17.046875 C 2.925781 13.703125 4.261719 10.679688 6.414062 8.484375 L 6.425781 8.492188 C 6.859375 7.882812 7.5625 7.484375 8.359375 7.484375 C 9.683594 7.484375 10.757812 8.570312 10.757812 9.914062 C 10.757812 10.738281 10.351562 11.460938 9.734375 11.902344 L 9.742188 11.910156 C 8.449219 13.234375 7.640625 15.039062 7.640625 17.046875 C 7.640625 21.09375 10.890625 24.378906 14.894531 24.378906 C 18.898438 24.378906 22.148438 21.09375 22.148438 17.046875 C 22.148438 15.214844 21.46875 13.554688 20.367188 12.273438 C 19.710938 11.839844 19.277344 11.089844 19.277344 10.238281 C 19.277344 8.894531 20.351562 7.804688 21.671875 7.804688 C 22.320312 7.804688 22.902344 8.070312 23.332031 8.492188 L 23.367188 8.457031 C 25.535156 10.660156 26.875 13.691406 26.875 17.046875 C 26.875 23.757812 21.511719 29.207031 14.902344 29.207031 Z M 14.898438 17.132812 C 13.574219 17.132812 12.503906 16.027344 12.503906 14.65625 L 12.503906 4.84375 C 12.503906 3.472656 13.574219 2.367188 14.898438 2.367188 C 16.226562 2.367188 17.296875 3.472656 17.296875 4.84375 L 17.296875 14.65625 C 17.296875 16.027344 16.226562 17.132812 14.898438 17.132812 Z M 14.898438 17.132812 " fill-opacity="1" fill-rule="evenodd"/></g></svg>