<svg width="20" height="20" viewBox="0 0 20 20" fill="none" xmlns="http://www.w3.org/2000/svg">
<rect width="20" height="20" rx="10" fill="#EAEAEA"/>
<path d="M10.8844 10.0001L14.8168 6.06756C15.0611 5.82345 15.0611 5.42736 14.8168 5.18324C14.5724 4.93892 14.1768 4.93892 13.9325 5.18324L10.0001 9.11578L6.06752 5.18324C5.82321 4.93892 5.42755 4.93892 5.18324 5.18324C4.93892 5.42736 4.93892 5.82345 5.18324 6.06756L9.11582 10.0001L5.18324 13.9326C4.93892 14.1768 4.93892 14.5728 5.18324 14.817C5.30539 14.9389 5.46549 15 5.62538 15C5.78527 15 5.94536 14.9389 6.06752 14.8168L10.0001 10.8842L13.9325 14.8168C14.0546 14.9389 14.2147 15 14.3746 15C14.5345 15 14.6946 14.9389 14.8168 14.8168C15.0611 14.5726 15.0611 14.1766 14.8168 13.9324L10.8844 10.0001Z" fill="black"/>
</svg>
