<svg width="24" height="24" viewBox="0 0 24 24" fill="none" xmlns="http://www.w3.org/2000/svg">
<path d="M22.3276 2.56581C21.0439 0.836289 19.6952 0.030774 18.0834 0.030774C17.0399 0.030774 16.0272 0.365474 15.0497 0.688469L15.0173 0.699121C13.9744 1.04158 12.9894 1.36523 11.9265 1.36523C10.8614 1.36523 9.81746 1.01488 8.80139 0.674134C7.80466 0.34259 6.77413 0 5.74254 0C4.1227 0 2.80573 0.821822 1.59858 2.58541C-0.300331 5.35099 0.777809 8.31252 1.6475 10.7009C2.03481 11.7635 2.40054 12.7671 2.40054 13.5249C2.40054 17.4157 3.22105 24.0001 6.29647 24.0001C8.4012 24.0001 9.04877 21.5547 9.62164 19.391C10.2299 17.1133 10.7566 15.5011 12.0012 15.5011C13.075 15.5011 13.4859 16.5449 14.0555 19.0472C14.5484 21.2335 15.1617 23.9541 17.7485 23.9541C21.3578 23.9541 21.6383 15.9676 21.6383 13.5199C21.6383 12.8014 21.992 11.8063 22.3665 10.7526L22.3814 10.7105C23.2431 8.27293 24.3154 5.23946 22.3276 2.56581ZM20.5215 10.053L20.5079 10.0919C20.0748 11.3103 19.6658 12.4612 19.6658 13.5198C19.6658 15.8429 19.4214 18.0948 18.9952 19.6981C18.4973 21.5711 17.9264 21.9813 17.7485 21.9813C16.9562 21.9813 16.576 21.2573 15.9778 18.6039C15.4901 16.4618 14.8224 13.5282 12.0012 13.5282C9.14556 13.5282 8.31914 16.6224 7.71313 18.892C7.3825 20.1405 6.88302 22.0272 6.2966 22.0272C6.2056 22.0272 5.6326 21.6316 5.10799 19.7516C4.64112 18.0788 4.3735 15.8091 4.3735 13.5246C4.3735 12.4186 3.94976 11.256 3.49828 10.0172C2.71302 7.86051 1.90106 5.63032 3.22592 3.70076C4.26789 2.17798 5.08287 1.97269 5.74254 1.97269C6.45481 1.97269 7.29229 2.2511 8.18026 2.54635C9.28602 2.91734 10.5392 3.33792 11.9264 3.33792C13.3048 3.33792 14.5417 2.93181 15.6328 2.57344L15.6669 2.56226C16.5362 2.27491 17.3575 2.00359 18.0834 2.00359C18.7608 2.00359 19.6067 2.21007 20.7441 3.74232C22.1053 5.57298 21.3002 7.85051 20.5215 10.053Z" fill="#EAEAEA"/>
</svg>
